<mxfile host="app.diagrams.net" modified="2023-05-29T00:31:20.222Z" agent="Mozilla/5.0 (Windows NT 10.0; Win64; x64) AppleWebKit/537.36 (KHTML, like Gecko) Chrome/112.0.0.0 Safari/537.36 OPR/98.0.0.0" etag="0BN5t0YSGo20-m5eqqII" version="21.3.3">
  <diagram name="PÃ¡gina-1" id="myz-glWZdoO99kHdcXSM">
    <mxGraphModel dx="1261" dy="688" grid="1" gridSize="10" guides="1" tooltips="1" connect="1" arrows="1" fold="1" page="1" pageScale="1" pageWidth="827" pageHeight="1169" math="0" shadow="0">
      <root>
        <mxCell id="0" />
        <mxCell id="1" parent="0" />
        <mxCell id="cO4Mi5PxHRRtDjo7w20w-11" value="" style="edgeStyle=orthogonalEdgeStyle;rounded=0;orthogonalLoop=1;jettySize=auto;html=1;" edge="1" parent="1" source="cO4Mi5PxHRRtDjo7w20w-1" target="cO4Mi5PxHRRtDjo7w20w-5">
          <mxGeometry relative="1" as="geometry" />
        </mxCell>
        <mxCell id="cO4Mi5PxHRRtDjo7w20w-1" value="Entrada" style="rounded=0;whiteSpace=wrap;html=1;" vertex="1" parent="1">
          <mxGeometry x="160" y="260" width="120" height="60" as="geometry" />
        </mxCell>
        <mxCell id="cO4Mi5PxHRRtDjo7w20w-3" value="" style="edgeStyle=orthogonalEdgeStyle;rounded=0;orthogonalLoop=1;jettySize=auto;html=1;" edge="1" parent="1" source="cO4Mi5PxHRRtDjo7w20w-2" target="cO4Mi5PxHRRtDjo7w20w-1">
          <mxGeometry relative="1" as="geometry" />
        </mxCell>
        <mxCell id="cO4Mi5PxHRRtDjo7w20w-2" value="" style="ellipse;whiteSpace=wrap;html=1;aspect=fixed;fillColor=#60a917;fontColor=#ffffff;strokeColor=#2D7600;" vertex="1" parent="1">
          <mxGeometry x="200" y="170" width="40" height="40" as="geometry" />
        </mxCell>
        <mxCell id="cO4Mi5PxHRRtDjo7w20w-9" style="edgeStyle=orthogonalEdgeStyle;rounded=0;orthogonalLoop=1;jettySize=auto;html=1;exitX=0.75;exitY=0;exitDx=0;exitDy=0;entryX=0.75;entryY=1;entryDx=0;entryDy=0;" edge="1" parent="1" source="cO4Mi5PxHRRtDjo7w20w-4" target="cO4Mi5PxHRRtDjo7w20w-5">
          <mxGeometry relative="1" as="geometry" />
        </mxCell>
        <mxCell id="cO4Mi5PxHRRtDjo7w20w-4" value="Memoria" style="rounded=0;whiteSpace=wrap;html=1;" vertex="1" parent="1">
          <mxGeometry x="340" y="380" width="120" height="60" as="geometry" />
        </mxCell>
        <mxCell id="cO4Mi5PxHRRtDjo7w20w-10" style="edgeStyle=orthogonalEdgeStyle;rounded=0;orthogonalLoop=1;jettySize=auto;html=1;exitX=0.25;exitY=1;exitDx=0;exitDy=0;entryX=0.25;entryY=0;entryDx=0;entryDy=0;" edge="1" parent="1" source="cO4Mi5PxHRRtDjo7w20w-5" target="cO4Mi5PxHRRtDjo7w20w-4">
          <mxGeometry relative="1" as="geometry" />
        </mxCell>
        <mxCell id="cO4Mi5PxHRRtDjo7w20w-12" value="" style="edgeStyle=orthogonalEdgeStyle;rounded=0;orthogonalLoop=1;jettySize=auto;html=1;" edge="1" parent="1" source="cO4Mi5PxHRRtDjo7w20w-5" target="cO4Mi5PxHRRtDjo7w20w-6">
          <mxGeometry relative="1" as="geometry" />
        </mxCell>
        <mxCell id="cO4Mi5PxHRRtDjo7w20w-5" value="Processamento" style="rounded=0;whiteSpace=wrap;html=1;" vertex="1" parent="1">
          <mxGeometry x="340" y="260" width="120" height="60" as="geometry" />
        </mxCell>
        <mxCell id="cO4Mi5PxHRRtDjo7w20w-6" value="Saida" style="rounded=0;whiteSpace=wrap;html=1;" vertex="1" parent="1">
          <mxGeometry x="510" y="260" width="120" height="60" as="geometry" />
        </mxCell>
        <mxCell id="cO4Mi5PxHRRtDjo7w20w-8" value="" style="edgeStyle=orthogonalEdgeStyle;rounded=0;orthogonalLoop=1;jettySize=auto;html=1;" edge="1" parent="1" source="cO4Mi5PxHRRtDjo7w20w-7" target="cO4Mi5PxHRRtDjo7w20w-6">
          <mxGeometry relative="1" as="geometry" />
        </mxCell>
        <mxCell id="cO4Mi5PxHRRtDjo7w20w-7" value="" style="ellipse;whiteSpace=wrap;html=1;aspect=fixed;fillColor=#a20025;fontColor=#ffffff;strokeColor=#6F0000;" vertex="1" parent="1">
          <mxGeometry x="550" y="400" width="40" height="40" as="geometry" />
        </mxCell>
      </root>
    </mxGraphModel>
  </diagram>
</mxfile>
